<svg xmlns="http://www.w3.org/2000/svg" xmlns:xlink="http://www.w3.org/1999/xlink" version="1.1" width="256" height="256" viewBox="0 0 256 256" xml:space="preserve">
<desc>Created with Fabric.js 1.7.22</desc>
<defs>
</defs>
<g transform="translate(128 128) scale(0.72 0.72)" style="">
	<g style="stroke: none; stroke-width: 0; stroke-dasharray: none; stroke-linecap: butt; stroke-linejoin: miter; stroke-miterlimit: 10; fill: none; fill-rule: nonzero; opacity: 1;" transform="translate(-175.05 -175.05000000000004) scale(3.89 3.89)" >
	<polyline points="77.97,64.06 89,63.92 89,48.72 76.7,29.86 59.53,29.86 59.53,63.92 65.16,64.06 " style="stroke: none; stroke-width: 1; stroke-dasharray: none; stroke-linecap: butt; stroke-linejoin: miter; stroke-miterlimit: 10; fill: rgb(242,105,82); fill-rule: nonzero; opacity: 1;" transform="  matrix(1 0 0 1 0 0) "/>
	<polygon points="80.5,35.68 66.7,35.68 66.7,48.72 89,48.72 " style="stroke: none; stroke-width: 1; stroke-dasharray: none; stroke-linecap: butt; stroke-linejoin: miter; stroke-miterlimit: 10; fill: rgb(216,225,236); fill-rule: nonzero; opacity: 1;" transform="  matrix(1 0 0 1 0 0) "/>
	<polyline points="24.34,63.92 59.53,63.92 59.53,44.68 59.53,35 59.53,19.54 1,19.54 1,63.92 11.54,63.92 " style="stroke: none; stroke-width: 1; stroke-dasharray: none; stroke-linecap: butt; stroke-linejoin: miter; stroke-miterlimit: 10; fill: rgb(243,188,49); fill-rule: nonzero; opacity: 1;" transform="  matrix(1 0 0 1 0 0) "/>
	<path d="M 65.162 65.058 c -0.008 0 -0.016 0 -0.024 0 l -5.631 -0.137 c -0.543 -0.014 -0.976 -0.457 -0.976 -1 V 29.859 c 0 -0.552 0.447 -1 1 -1 h 17.172 c 0.338 0 0.653 0.171 0.838 0.454 l 12.297 18.859 C 89.943 48.334 90 48.523 90 48.718 v 15.203 c 0 0.548 -0.44 0.993 -0.987 1 l -11.034 0.137 c -0.005 0 -0.009 0 -0.013 0 c -0.547 0 -0.993 -0.439 -1 -0.987 c -0.007 -0.553 0.436 -1.006 0.987 -1.013 L 88 62.934 V 49.015 L 76.161 30.859 h -15.63 v 32.086 l 4.655 0.112 c 0.552 0.014 0.988 0.472 0.976 1.024 C 66.148 64.626 65.703 65.058 65.162 65.058 z" style="stroke: none; stroke-width: 1; stroke-dasharray: none; stroke-linecap: butt; stroke-linejoin: miter; stroke-miterlimit: 10; fill: rgb(0,0,0); fill-rule: nonzero; opacity: 1;" transform=" matrix(1 0 0 1 0 0) " stroke-linecap="round" />
	<circle cx="17.942" cy="64.062" r="6.402" style="stroke: none; stroke-width: 1; stroke-dasharray: none; stroke-linecap: butt; stroke-linejoin: miter; stroke-miterlimit: 10; fill: rgb(51,74,94); fill-rule: nonzero; opacity: 1;" transform="  matrix(1 0 0 1 0 0) "/>
	<circle cx="71.562" cy="64.062" r="6.402" style="stroke: none; stroke-width: 1; stroke-dasharray: none; stroke-linecap: butt; stroke-linejoin: miter; stroke-miterlimit: 10; fill: rgb(51,74,94); fill-rule: nonzero; opacity: 1;" transform="  matrix(1 0 0 1 0 0) "/>
	<path d="M 59.531 64.921 H 24.344 c -0.552 0 -1 -0.447 -1 -1 s 0.448 -1 1 -1 h 34.187 V 20.54 H 2 v 42.381 h 9.541 c 0.552 0 1 0.447 1 1 s -0.448 1 -1 1 H 1 c -0.552 0 -1 -0.447 -1 -1 V 19.54 c 0 -0.552 0.448 -1 1 -1 h 58.531 c 0.553 0 1 0.448 1 1 v 44.381 C 60.531 64.474 60.084 64.921 59.531 64.921 z" style="stroke: none; stroke-width: 1; stroke-dasharray: none; stroke-linecap: butt; stroke-linejoin: miter; stroke-miterlimit: 10; fill: rgb(0,0,0); fill-rule: nonzero; opacity: 1;" transform=" matrix(1 0 0 1 0 0) " stroke-linecap="round" />
	<path d="M 17.942 71.46 c -4.082 0 -7.402 -3.32 -7.402 -7.402 c 0 -4.081 3.32 -7.401 7.402 -7.401 s 7.402 3.32 7.402 7.401 C 25.344 68.14 22.024 71.46 17.942 71.46 z M 17.942 58.656 c -2.979 0 -5.402 2.423 -5.402 5.401 s 2.423 5.402 5.402 5.402 s 5.402 -2.424 5.402 -5.402 S 20.921 58.656 17.942 58.656 z" style="stroke: none; stroke-width: 1; stroke-dasharray: none; stroke-linecap: butt; stroke-linejoin: miter; stroke-miterlimit: 10; fill: rgb(0,0,0); fill-rule: nonzero; opacity: 1;" transform=" matrix(1 0 0 1 0 0) " stroke-linecap="round" />
	<path d="M 89 49.718 H 66.703 c -0.553 0 -1 -0.447 -1 -1 V 35.68 c 0 -0.552 0.447 -1 1 -1 h 13.795 c 0.338 0 0.653 0.171 0.838 0.454 l 8.502 13.039 c 0.2 0.307 0.216 0.699 0.041 1.022 C 89.704 49.517 89.367 49.718 89 49.718 z M 67.703 47.718 h 19.451 L 79.956 36.68 H 67.703 V 47.718 z" style="stroke: none; stroke-width: 1; stroke-dasharray: none; stroke-linecap: butt; stroke-linejoin: miter; stroke-miterlimit: 10; fill: rgb(0,0,0); fill-rule: nonzero; opacity: 1;" transform=" matrix(1 0 0 1 0 0) " stroke-linecap="round" />
	<path d="M 89 57.815 h -5.288 c -0.553 0 -1 -0.447 -1 -1 s 0.447 -1 1 -1 H 89 c 0.553 0 1 0.447 1 1 S 89.553 57.815 89 57.815 z" style="stroke: none; stroke-width: 1; stroke-dasharray: none; stroke-linecap: butt; stroke-linejoin: miter; stroke-miterlimit: 10; fill: rgb(0,0,0); fill-rule: nonzero; opacity: 1;" transform=" matrix(1 0 0 1 0 0) " stroke-linecap="round" />
	<path d="M 71.564 71.46 c -4.082 0 -7.402 -3.32 -7.402 -7.402 c 0 -4.081 3.32 -7.401 7.402 -7.401 c 4.081 0 7.401 3.32 7.401 7.401 C 78.966 68.14 75.646 71.46 71.564 71.46 z M 71.564 58.656 c -2.979 0 -5.402 2.423 -5.402 5.401 s 2.424 5.402 5.402 5.402 s 5.401 -2.424 5.401 -5.402 S 74.543 58.656 71.564 58.656 z" style="stroke: none; stroke-width: 1; stroke-dasharray: none; stroke-linecap: butt; stroke-linejoin: miter; stroke-miterlimit: 10; fill: rgb(0,0,0); fill-rule: nonzero; opacity: 1;" transform=" matrix(1 0 0 1 0 0) " stroke-linecap="round" />
	<circle cx="17.948" cy="64.05799999999999" r="1.828" style="stroke: none; stroke-width: 1; stroke-dasharray: none; stroke-linecap: butt; stroke-linejoin: miter; stroke-miterlimit: 10; fill: rgb(0,0,0); fill-rule: nonzero; opacity: 1;" transform="  matrix(1 0 0 1 0 0) "/>
	<circle cx="71.568" cy="64.05799999999999" r="1.828" style="stroke: none; stroke-width: 1; stroke-dasharray: none; stroke-linecap: butt; stroke-linejoin: miter; stroke-miterlimit: 10; fill: rgb(0,0,0); fill-rule: nonzero; opacity: 1;" transform="  matrix(1 0 0 1 0 0) "/>
	<path d="M 59.531 57.815 H 29.358 c -0.552 0 -1 -0.447 -1 -1 s 0.448 -1 1 -1 h 30.173 c 0.553 0 1 0.447 1 1 S 60.084 57.815 59.531 57.815 z" style="stroke: none; stroke-width: 1; stroke-dasharray: none; stroke-linecap: butt; stroke-linejoin: miter; stroke-miterlimit: 10; fill: rgb(0,0,0); fill-rule: nonzero; opacity: 1;" transform=" matrix(1 0 0 1 0 0) " stroke-linecap="round" />
	<path d="M 6.288 57.815 H 1 c -0.552 0 -1 -0.447 -1 -1 s 0.448 -1 1 -1 h 5.288 c 0.552 0 1 0.447 1 1 S 6.84 57.815 6.288 57.815 z" style="stroke: none; stroke-width: 1; stroke-dasharray: none; stroke-linecap: butt; stroke-linejoin: miter; stroke-miterlimit: 10; fill: rgb(0,0,0); fill-rule: nonzero; opacity: 1;" transform=" matrix(1 0 0 1 0 0) " stroke-linecap="round" />
</g>
</g>
</svg>