<svg xmlns="http://www.w3.org/2000/svg" xmlns:xlink="http://www.w3.org/1999/xlink" version="1.1" width="256" height="256" viewBox="0 0 256 256" xml:space="preserve">
<desc>Created with Fabric.js 1.7.22</desc>
<defs>
</defs>
<g transform="translate(128 128) scale(0.72 0.72)" style="">
	<g style="stroke: none; stroke-width: 0; stroke-dasharray: none; stroke-linecap: butt; stroke-linejoin: miter; stroke-miterlimit: 10; fill: none; fill-rule: nonzero; opacity: 1;" transform="translate(-175.05 -175.05000000000004) scale(3.89 3.89)" >
	<path d="M 50.442 3.137 L 50.442 3.137 c 2.095 1.958 5.081 2.639 7.818 1.784 l 0 0 c 4.002 -1.25 8.288 0.814 9.807 4.723 l 0 0 c 1.038 2.673 3.433 4.582 6.27 5 l 0 0 c 4.148 0.611 7.114 4.33 6.786 8.51 v 0 c -0.224 2.859 1.104 5.618 3.479 7.225 l 0 0 c 3.472 2.35 4.531 6.988 2.422 10.612 v 0 c -1.442 2.479 -1.442 5.541 0 8.019 v 0 c 2.109 3.624 1.05 8.262 -2.422 10.612 l 0 0 c -2.375 1.607 -3.704 4.366 -3.479 7.225 v 0 c 0.328 4.18 -2.638 7.899 -6.786 8.51 h 0 c -2.837 0.418 -5.231 2.327 -6.27 5 l 0 0 c -1.518 3.908 -5.804 5.972 -9.807 4.723 l 0 0 c -2.737 -0.855 -5.723 -0.173 -7.818 1.784 l 0 0 c -3.064 2.862 -7.821 2.862 -10.884 0 l 0 0 c -2.095 -1.958 -5.081 -2.639 -7.818 -1.784 l 0 0 c -4.002 1.25 -8.288 -0.814 -9.807 -4.723 l 0 0 c -1.038 -2.673 -3.433 -4.582 -6.27 -5 h 0 c -4.148 -0.611 -7.114 -4.33 -6.786 -8.51 l 0 0 c 0.224 -2.859 -1.104 -5.618 -3.479 -7.225 l 0 0 c -3.472 -2.35 -4.531 -6.988 -2.422 -10.612 l 0 0 c 1.442 -2.479 1.442 -5.541 0 -8.019 l 0 0 c -2.109 -3.624 -1.05 -8.262 2.422 -10.612 l 0 0 c 2.375 -1.607 3.704 -4.366 3.479 -7.225 l 0 0 c -0.328 -4.18 2.638 -7.899 6.786 -8.51 l 0 0 c 2.837 -0.418 5.231 -2.327 6.27 -5 l 0 0 c 1.518 -3.908 5.804 -5.972 9.807 -4.723 l 0 0 c 2.737 0.855 5.723 0.173 7.818 -1.784 l 0 0 C 42.621 0.275 47.379 0.275 50.442 3.137 z" style="stroke: none; stroke-width: 1; stroke-dasharray: none; stroke-linecap: butt; stroke-linejoin: miter; stroke-miterlimit: 10; fill: rgb(255,207,93); fill-rule: nonzero; opacity: 1;" transform=" matrix(1 0 0 1 0 0) " stroke-linecap="round" />
	<circle cx="45.001" cy="45.001" r="30.371" style="stroke: none; stroke-width: 1; stroke-dasharray: none; stroke-linecap: butt; stroke-linejoin: miter; stroke-miterlimit: 10; fill: rgb(63,95,148); fill-rule: nonzero; opacity: 1;" transform="  matrix(1 0 0 1 0 0) "/>
	<path d="M 62.209 31.673 L 62.209 31.673 c -1.873 -1.873 -4.911 -1.873 -6.784 0 L 41.781 45.317 c -1.129 1.129 -2.96 1.129 -4.089 0 L 34.575 42.2 c -1.873 -1.873 -4.911 -1.873 -6.784 0 l 0 0 c -1.873 1.873 -1.873 4.911 0 6.784 l 9.901 9.901 c 1.129 1.129 2.96 1.129 4.089 0 l 4.739 -4.739 l 0 0 l 15.689 -15.689 C 64.083 36.584 64.083 33.546 62.209 31.673 z" style="stroke: none; stroke-width: 1; stroke-dasharray: none; stroke-linecap: butt; stroke-linejoin: miter; stroke-miterlimit: 10; fill: rgb(255,255,255); fill-rule: nonzero; opacity: 1;" transform=" matrix(1 0 0 1 0 0) " stroke-linecap="round" />
	<path d="M 45 90 c -2.204 0.001 -4.408 -0.802 -6.125 -2.407 c -1.829 -1.708 -4.449 -2.306 -6.837 -1.561 c -4.486 1.404 -9.335 -0.933 -11.037 -5.315 c -0.906 -2.333 -3.007 -4.008 -5.483 -4.372 c -4.651 -0.685 -8.006 -4.892 -7.638 -9.577 c 0.196 -2.496 -0.97 -4.916 -3.043 -6.319 c -3.892 -2.634 -5.09 -7.881 -2.726 -11.943 c 1.259 -2.163 1.259 -4.85 0 -7.013 c -2.364 -4.062 -1.167 -9.308 2.726 -11.943 c 2.073 -1.403 3.239 -3.824 3.043 -6.319 c -0.368 -4.686 2.987 -8.893 7.638 -9.577 c 2.476 -0.364 4.576 -2.04 5.483 -4.373 c 1.703 -4.381 6.551 -6.714 11.037 -5.315 c 2.387 0.746 5.008 0.148 6.837 -1.56 c 3.435 -3.208 8.818 -3.208 12.25 0 v 0 c 1.83 1.709 4.451 2.307 6.837 1.56 c 4.487 -1.399 9.334 0.934 11.037 5.316 c 0.905 2.333 3.007 4.008 5.483 4.373 c 4.65 0.684 8.005 4.891 7.638 9.577 c -0.196 2.495 0.97 4.916 3.043 6.319 c 3.892 2.634 5.09 7.88 2.725 11.943 c -1.258 2.163 -1.258 4.851 0 7.013 c 2.365 4.062 1.167 9.309 -2.725 11.943 c -2.073 1.403 -3.239 3.823 -3.043 6.319 c 0.366 4.687 -2.988 8.894 -7.638 9.577 c -2.476 0.364 -4.577 2.04 -5.484 4.372 c -1.702 4.381 -6.548 6.718 -11.036 5.315 c -2.389 -0.744 -5.008 -0.147 -6.837 1.561 C 49.408 89.198 47.204 90 45 90 z M 34.107 83.718 c 2.244 0 4.449 0.841 6.133 2.415 c 2.669 2.493 6.851 2.493 9.519 0 c 2.353 -2.2 5.726 -2.969 8.799 -2.008 c 3.493 1.087 7.254 -0.726 8.575 -4.131 c 1.167 -3.002 3.871 -5.158 7.057 -5.626 c 3.613 -0.531 6.22 -3.801 5.935 -7.442 c -0.252 -3.212 1.248 -6.328 3.916 -8.132 c 3.025 -2.047 3.955 -6.123 2.118 -9.28 c -1.619 -2.783 -1.619 -6.242 0 -9.025 c 1.837 -3.157 0.907 -7.233 -2.118 -9.28 c -2.668 -1.805 -4.168 -4.921 -3.916 -8.132 c 0.285 -3.641 -2.322 -6.91 -5.935 -7.442 c -3.186 -0.469 -5.891 -2.625 -7.057 -5.627 c -1.322 -3.404 -5.082 -5.218 -8.575 -4.13 c -3.073 0.959 -6.446 0.19 -8.799 -2.008 l 0 0 c -2.669 -2.494 -6.851 -2.493 -9.519 0 c -2.354 2.199 -5.724 2.968 -8.799 2.008 c -3.487 -1.09 -7.254 0.726 -8.576 4.13 c -1.166 3.002 -3.87 5.158 -7.056 5.627 c -3.614 0.532 -6.221 3.801 -5.934 7.442 c 0.252 3.211 -1.249 6.327 -3.916 8.132 c -3.025 2.047 -3.955 6.123 -2.118 9.28 c 1.62 2.784 1.62 6.243 0 9.025 c -1.837 3.157 -0.906 7.233 2.118 9.28 c 2.668 1.804 4.168 4.92 3.916 8.132 c -0.286 3.641 2.321 6.91 5.934 7.442 c 3.186 0.468 5.89 2.625 7.056 5.626 c 1.323 3.405 5.091 5.216 8.576 4.131 C 32.316 83.85 33.215 83.718 34.107 83.718 z" style="stroke: none; stroke-width: 1; stroke-dasharray: none; stroke-linecap: butt; stroke-linejoin: miter; stroke-miterlimit: 10; fill: rgb(63,95,148); fill-rule: nonzero; opacity: 1;" transform=" matrix(1 0 0 1 0 0) " stroke-linecap="round" />
</g>
</g>
</svg>